# xmcd CD database file
#
# Track frame offsets:
#	150
#	13995
#	26055
#	39909
#	54219
#	67358
#	82228
#	96108
#	108154
#	122120
#
# Disc length: 1782 seconds
#
# Revision: 0
# Processed by: cddbd v1.5.1PL0 Copyright (c) Steve Scherf et al.
# Submitted via: CDex 1.51
#
DISCID=8506f40a
DTITLE=Billie Holiday - Easy Livin'
DYEAR=2002
DGENRE=Jazz
TTITLE0=Easy Livin'
TTITLE1=Let's call the whole thing off
TTITLE2=They can't take that away from me
TTITLE3=I'll get by
TTITLE4=You go tomy head
TTITLE5=Can't help lovin' dat man
TTITLE6=My man
TTITLE7=He's funny that way
TTITLE8=I'll never be the same
TTITLE9=Me myself and i
EXTD=YEAR: 2002
EXTT0=
EXTT1=
EXTT2=
EXTT3=
EXTT4=
EXTT5=
EXTT6=
EXTT7=
EXTT8=
EXTT9=
PLAYORDER=
